<svg xmlns="http://www.w3.org/2000/svg" xmlns:xlink="http://www.w3.org/1999/xlink" viewBox="0 0 640 480"><path fill="#bd3d44" d="M0 0h640v480H0"/><path stroke="#fff" stroke-width="37" d="M0 55.3h640M0 129h640M0 203h640M0 277h640M0 351h640M0 425h640"/><path fill="#192f5d" d="M0 0h364.8v258.5H0"/><marker id="a" markerHeight="30" markerWidth="30"><path fill="#fff" d="m14 0 9 27L0 10h28L5 27z"/></marker><use xlink:href="#a" x="24" y="22"/><use xlink:href="#a" x="66.8" y="22"/><use xlink:href="#a" x="109.6" y="22"/><use xlink:href="#a" x="152.4" y="22"/><use xlink:href="#a" x="195.2" y="22"/><use xlink:href="#a" x="238" y="22"/><use xlink:href="#a" x="45.4" y="61.4"/><use xlink:href="#a" x="88.2" y="61.4"/><use xlink:href="#a" x="131" y="61.4"/><use xlink:href="#a" x="173.8" y="61.4"/><use xlink:href="#a" x="216.6" y="61.4"/><use xlink:href="#a" x="24" y="100.8"/><use xlink:href="#a" x="66.8" y="100.8"/><use xlink:href="#a" x="109.6" y="100.8"/><use xlink:href="#a" x="152.4" y="100.8"/><use xlink:href="#a" x="195.2" y="100.8"/><use xlink:href="#a" x="238" y="100.8"/><use xlink:href="#a" x="45.4" y="140"/><use xlink:href="#a" x="88.2" y="140"/><use xlink:href="#a" x="131" y="140"/><use xlink:href="#a" x="173.8" y="140"/><use xlink:href="#a" x="216.6" y="140"/><use xlink:href="#a" x="24" y="180"/><use xlink:href="#a" x="66.8" y="180"/><use xlink:href="#a" x="109.6" y="180"/><use xlink:href="#a" x="152.4" y="180"/><use xlink:href="#a" x="195.2" y="180"/><use xlink:href="#a" x="238" y="180"/><use xlink:href="#a" x="45.4" y="219.2"/><use xlink:href="#a" x="88.2" y="219.2"/><use xlink:href="#a" x="131" y="219.2"/><use xlink:href="#a" x="173.8" y="219.2"/><use xlink:href="#a" x="216.6" y="219.2"/></svg>
